# xmcd
#
# Track frame offsets:
#	150
#	19258
#	39176
#	56260
#	72683
#	97535
#	116861
#	134972
#	154385
#	170109
#	185816
#	210311
#	228840
#
# Disc length: 3246 seconds
#
# Revision: 1
# Processed by: cddbd v1.4PL0 Copyright (c) Steve Scherf et al.
# Submitted via: audiograbber 1.81.02
#
DISCID=b90cac0d
DTITLE=The Showdogs - Showdogs
DYEAR=2003
DGENRE=Blues
TTITLE0=If the Shoe Fits
TTITLE1=Early in the Morning
TTITLE2=450lb Woman
TTITLE3=I'm Tired of Tryin
TTITLE4=You Got What I Want
TTITLE5=Rocket 88
TTITLE6=Cold Water
TTITLE7=Its Easy To See
TTITLE8=Make Your Mind Up
TTITLE9=Poison Ivy
TTITLE10=Don't Think Twice
TTITLE11=Sick and Tired
TTITLE12=Boogie Woogie Woman
EXTD=
EXTT0=
EXTT1=
EXTT2=
EXTT3=
EXTT4=
EXTT5=
EXTT6=
EXTT7=
EXTT8=
EXTT9=
EXTT10=
EXTT11=
EXTT12=
PLAYORDER=
